<svg width="19" height="18" viewBox="0 0 19 18" fill="none" xmlns="http://www.w3.org/2000/svg">
<g clip-path="url(#clip0_1_60)">
<path fill-rule="evenodd" clip-rule="evenodd" d="M12.0553 2.86064C12.7278 2.10357 13.181 1.04913 13.057 0C12.088 0.0358378 10.9157 0.601311 10.2209 1.35748C9.59695 2.02854 9.0523 3.10078 9.19872 4.12931C10.2796 4.20725 11.3829 3.61859 12.0553 2.86064ZM14.4792 9.51943C14.5063 12.2314 17.0346 13.1336 17.0626 13.1452C17.0421 13.2088 16.6588 14.4307 15.7308 15.6939C14.9278 16.7852 14.095 17.872 12.7828 17.8953C11.4939 17.9177 11.0789 17.184 9.60441 17.184C8.13086 17.184 7.67015 17.8719 6.45028 17.9176C5.18377 17.9615 4.21851 16.737 3.40992 15.6493C1.75545 13.4247 0.491744 9.36271 2.18912 6.62116C3.03221 5.26024 4.5384 4.39711 6.17422 4.37561C7.4174 4.35321 8.59158 5.15431 9.35167 5.15431C10.1118 5.15431 11.5387 4.19118 13.0383 4.33274C13.666 4.35693 15.4286 4.5683 16.5599 6.11019C16.4685 6.16306 14.4568 7.25272 14.4792 9.51943Z" fill="black"/>
</g>
<defs>
<clipPath id="clip0_1_60">
<rect width="18.4459" height="17.9189" fill="white"/>
</clipPath>
</defs>
</svg>
