<svg width="229" height="65" viewBox="0 0 229 65" fill="none" xmlns="http://www.w3.org/2000/svg">
<path d="M54.4527 20.0764C51.1807 8.49536 40.4596 0 27.7404 0C15.0212 0 3.77875 8.91299 0.802721 20.9283C0.27848 23.0388 0 25.2466 0 27.5194C0 30.9744 0.642031 34.2793 1.8163 37.3261C3.39193 41.4331 5.93388 45.067 9.16513 47.9543C10.4376 49.0968 11.8176 50.1196 13.2878 51.0111C17.4955 53.5652 22.4464 55.0359 27.7404 55.0359C30.9695 55.0359 34.0684 54.4885 36.9513 53.4801C37.4378 53.3135 37.9177 53.1288 38.3917 52.9327C39.7143 52.3874 40.9839 51.7454 42.1908 51.0111V58.3315C42.1908 61.9733 45.1669 64.9227 48.8351 64.9227C52.5033 64.9227 55.4794 61.9733 55.4794 58.3315V27.5194C55.4794 24.9408 55.1231 22.4444 54.4534 20.0771L54.4527 20.0764ZM33.2133 40.7904C33.0075 40.8748 32.7996 40.9549 32.5887 41.027C31.0734 41.5644 29.4426 41.8558 27.7411 41.8558C19.7568 41.8558 13.2885 35.4363 13.2885 27.5187C13.2885 19.6011 19.7568 13.1816 27.7411 13.1816C35.7254 13.1816 42.1908 19.6011 42.1908 27.5187C42.1908 33.5148 38.4797 38.6525 33.2133 40.7904Z" fill="#00654F"/>
<path d="M87.5513 44.7371H84.1722L81.7538 38.7316H70.6215C68.9853 42.7232 69.8037 40.7454 68.2031 44.7371H64.824L74.4981 20.7157H77.8772C84.3145 36.7184 81.0784 28.7344 87.5513 44.7371ZM80.5091 35.6228L76.1698 24.8841C73.2889 32.0552 74.7472 28.487 71.8662 35.6228H80.5091Z" fill="#00654F"/>
<path d="M88.8309 44.7371V36.0469C88.8309 31.7725 92.3161 28.311 96.6197 28.311C100.923 28.311 104.444 31.7725 104.444 36.0469H101.314C101.314 33.5036 99.2153 31.4191 96.619 31.4191C94.0227 31.4191 91.9595 33.5036 91.9595 36.0469V44.7371H88.8295H88.8309Z" fill="#00654F"/>
<path d="M114.83 44.7371C110.099 44.7371 106.294 40.9568 106.294 36.259V20.1856H109.424V28.3103H113.621V31.4191H109.424V36.2583C109.424 39.2257 111.842 41.6276 114.83 41.6276V44.7364V44.7371Z" fill="#00654F"/>
<path d="M119.809 28.8404V44.7371H116.679V28.8404H119.809Z" fill="#00654F"/>
<path d="M122.227 40.9222L125.072 39.6152C125.748 41.0635 127.455 41.629 129.162 41.629C131.331 41.629 133.501 40.7108 133.501 39.7212C133.501 37.4607 122.369 38.4496 122.369 32.8328C122.369 29.7594 125.89 27.8169 129.482 27.8169C132.256 27.8169 135.066 28.9472 136.311 31.6318L133.501 32.9388C132.79 31.4905 131.118 30.925 129.482 30.925C127.455 30.925 125.499 31.7725 125.499 32.8321C125.499 35.1987 136.596 34.1391 136.596 39.7205C136.596 42.7939 132.933 44.7364 129.198 44.7364C126.352 44.7364 123.471 43.5708 122.227 40.9214V40.9222Z" fill="#00654F"/>
<path d="M147.327 44.7371C142.596 44.7371 138.791 40.9568 138.791 36.259V20.1856H141.921V28.3103H146.118V31.4191H141.921V36.2583C141.921 39.2257 144.339 41.6276 147.327 41.6276V44.7364V44.7371Z" fill="#00654F"/>
<path d="M172.658 37.8047C172.658 41.6319 169.531 44.7371 165.678 44.7371H154.554V20.1856H164.151C167.86 20.1856 171.095 23.1825 171.095 27.0819C171.095 28.7784 170.477 30.4756 169.205 31.8114C171.349 33.0752 172.658 35.3501 172.658 37.8047ZM157.753 30.8363H164.151C166.187 30.8002 167.86 29.1398 167.86 27.0812C167.86 25.0226 166.224 23.3982 164.151 23.3622H157.753V30.8355V30.8363ZM165.678 41.5598C167.75 41.5598 169.422 39.8626 169.422 37.8047C169.422 35.7469 167.75 34.0857 165.678 34.0496H157.753V41.5598H165.678Z" fill="#49655F"/>
<path d="M174.729 36.0714C174.729 31.3058 178.619 27.4065 183.453 27.4065C188.288 27.4065 192.177 31.3058 192.177 36.0714C192.141 40.8738 188.251 44.7364 183.453 44.7364C178.655 44.7364 174.729 40.8731 174.729 36.0714ZM177.928 36.0714C177.928 39.1045 180.4 41.5598 183.453 41.5598C186.506 41.5598 188.978 39.1045 188.978 36.0714C188.978 33.0384 186.506 30.5838 183.453 30.5838C180.4 30.5838 177.928 33.0391 177.928 36.0714Z" fill="#49655F"/>
<path d="M194.321 36.0714C194.321 31.3058 198.211 27.4065 203.045 27.4065C207.88 27.4065 211.77 31.3058 211.77 36.0714C211.733 40.8738 207.844 44.7364 203.045 44.7364C198.247 44.7364 194.321 40.8731 194.321 36.0714ZM197.52 36.0714C197.52 39.1045 199.992 41.5598 203.045 41.5598C206.098 41.5598 208.57 39.1045 208.57 36.0714C208.57 33.0384 206.098 30.5838 203.045 30.5838C199.992 30.5838 197.52 33.0391 197.52 36.0714Z" fill="#49655F"/>
<path d="M225.183 44.7371L218.93 35.2052C217.949 36.0722 218.421 35.6387 217.44 36.541V44.7371H214.241V20.1856H217.44V32.281L221.766 28.4899H226.601L221.366 33.0752L229 44.7371H225.183Z" fill="#49655F"/>
</svg>
