<svg width="21" height="21" viewBox="0 0 21 21" fill="none" xmlns="http://www.w3.org/2000/svg">
<path d="M19.2695 10.277C19.2695 7.89208 18.3221 5.60483 16.6357 3.91842C14.9493 2.23202 12.662 1.28461 10.2771 1.28461C8.01273 1.28252 5.83093 2.13477 4.16752 3.67111C2.5041 5.20746 1.48152 7.3148 1.30405 9.5722C1.12657 11.8296 1.80726 14.0708 3.21015 15.8483C4.61304 17.6257 6.63484 18.8084 8.8717 19.1602V12.8758H6.5902V10.277H8.87299V8.29611C8.87299 6.04287 10.2154 4.79678 12.2695 4.79678C13.2536 4.79678 14.2826 4.97278 14.2826 4.97278V7.18619H13.1482C12.0306 7.18619 11.6838 7.87989 11.6838 8.59029V10.277H14.1772L13.779 12.8758H11.6825V19.1602C13.7976 18.8253 15.7238 17.7466 17.1146 16.1182C18.5054 14.4898 19.2695 12.4185 19.2695 10.277Z" fill="#1877F2"/>
<path d="M13.7776 12.8758L14.1758 10.277H11.6824V8.59032C11.6824 7.87992 12.0292 7.18623 13.1468 7.18623H14.2812V4.97153C14.2812 4.97153 13.2522 4.79553 12.2681 4.79553C10.2127 4.79553 8.87159 6.04162 8.87159 8.29486V10.277H6.59009V12.8758H8.87287V19.1602C9.80406 19.3068 10.7524 19.3068 11.6836 19.1602V12.8758H13.7776Z" fill="white"/>
</svg>
