<svg width="18" height="18" viewBox="0 0 18 18" fill="none" xmlns="http://www.w3.org/2000/svg">
<g clip-path="url(#clip0_1_47)">
<path d="M16.8659 8.69429C16.8659 7.99497 16.8091 7.48466 16.6863 6.95544H8.70081V10.1118H13.3881C13.2937 10.8962 12.7833 12.0775 11.6493 12.8713L11.6334 12.977L14.1583 14.933L14.3332 14.9504C15.9397 13.4667 16.8659 11.2837 16.8659 8.69429Z" fill="#4285F4"/>
<path d="M8.70075 17.0106C10.9971 17.0106 12.925 16.2545 14.3331 14.9504L11.6492 12.8713C10.931 13.3722 9.96706 13.7218 8.70075 13.7218C6.45158 13.7218 4.54263 12.2382 3.86214 10.1874L3.7624 10.1959L1.137 12.2277L1.10266 12.3232C2.5013 15.1016 5.3742 17.0106 8.70075 17.0106Z" fill="#34A853"/>
<path d="M3.86213 10.1874C3.68257 9.65823 3.57866 9.09117 3.57866 8.50527C3.57866 7.91932 3.68257 7.35232 3.85268 6.82311L3.84792 6.7104L1.18962 4.64594L1.10264 4.68731C0.5262 5.84026 0.195435 7.13498 0.195435 8.50527C0.195435 9.87557 0.5262 11.1702 1.10264 12.3232L3.86213 10.1874Z" fill="#FBBC05"/>
<path d="M8.70075 3.28869C10.2978 3.28869 11.3751 3.97856 11.9894 4.55507L14.3898 2.21138C12.9156 0.841083 10.9971 0 8.70075 0C5.3742 0 2.5013 1.90895 1.10266 4.68733L3.8527 6.82313C4.54263 4.77241 6.45158 3.28869 8.70075 3.28869Z" fill="#EB4335"/>
</g>
<defs>
<clipPath id="clip0_1_47">
<rect width="17.0692" height="17.0692" fill="white"/>
</clipPath>
</defs>
</svg>
