<svg xmlns="http://www.w3.org/2000/svg" width="278" height="329" viewBox="0 0 278 329" fill="none">
  <g opacity="0.2">
    <path d="M250.2 143.998H27.8C12.51 143.998 0 156.331 0 171.406V301.592C0 316.667 12.51 329 27.8 329H250.2C265.49 329 278 316.667 278 301.592V171.406C278 156.331 265.49 143.998 250.2 143.998ZM173.75 291.314C163.325 298.166 151.51 301.592 139 301.592C134.83 301.592 130.66 300.907 126.49 300.222C109.81 296.796 95.91 287.888 86.875 274.185L109.81 259.11C114.675 266.647 123.015 272.129 132.05 273.499C141.085 275.555 150.12 273.499 158.46 268.018C174.445 257.74 178.615 235.814 168.19 220.74C163.325 213.202 154.985 207.721 145.95 206.35C136.915 204.295 127.88 206.351 119.54 211.832C117.455 213.202 116.065 214.573 114.675 215.943L139 239.925H76.45V178.258L94.52 196.073C97.3 193.332 100.775 190.591 103.555 188.536C117.455 179.628 134.135 176.202 150.815 178.943C167.495 182.369 181.395 191.276 190.43 204.98C209.89 233.758 202.245 272.129 173.75 291.314Z" fill="#00654F"/>
    <path d="M27.7998 110.424V113.164C27.7998 112.479 27.7998 111.794 27.7998 110.424Z" fill="#00654F"/>
    <path d="M34.7498 116.59H62.5498C66.7198 116.59 69.4998 114.535 69.4998 110.424V109.738C69.4998 70.6824 103.555 38.4783 143.865 41.2191C180.7 43.9598 208.5 75.4787 208.5 112.479V110.424C208.5 114.535 211.28 116.59 215.45 116.59H243.25C247.42 116.59 250.2 114.535 250.2 110.424V109.738C250.2 47.3858 197.38 -2.63327 133.44 0.107502C74.3648 2.84827 29.1898 52.1821 27.7998 110.424C28.4948 113.849 31.2748 116.59 34.7498 116.59Z" fill="#00654F"/>
  </g>
</svg>